# xmcd
#
# Track frame offsets:
#	150
#	22425
#	41282
#	66350
#	83455
#	102415
#	119187
#	135797
#	161610
#	182492
#	200907
#	220630
#	241792
#	261972
#	283660
#	301505
#
# Disc length: 4279 seconds
#
# Revision: 0
# Processed by: cddbd v1.5.2PL0 Copyright (c) Steve Scherf et al.
# Submitted via: EZCDAudioConverter 1.3.4.1
#
DISCID=de10b510
DTITLE=Various Artist - Soft Soul
DYEAR=1987
DGENRE=Soul
TTITLE0=Alexander O'Neal - Crying Overtime
TTITLE1=Alexander O'Neal - When The Party's Over
TTITLE2=Hiroshima - I've Been Here Before
TTITLE3=Michael Jackson - Liberian Girl
TTITLE4=Tawatha - Did I Dream You
TTITLE5=Tony Terry - Forever Yours
TTITLE6=Luther Vandross - So Amazing
TTITLE7=Luther Vandross - Anyone Who Had A Heart
TTITLE8=Basia - Astrud
TTITLE9=Basia - Promises
TTITLE10=Charlie Singleton and Modern Man - Almost Over You 
TTITLE11=Dan Siegel - Feelin' Happy
TTITLE12=Dan Siegel - On The Road
TTITLE13=James Robinson - Guilty
TTITLE14=Gloria Estafan and Miami Sound Machine  - Can't Stay Away From You
TTITLE15=Gloria Estafan and Miami Sound Machine - I Want You So Bad
EXTD=
EXTT0=
EXTT1=
EXTT2=
EXTT3=
EXTT4=
EXTT5=
EXTT6=
EXTT7=
EXTT8=
EXTT9=
EXTT10=
EXTT11=
EXTT12=
EXTT13=
EXTT14=
EXTT15=
PLAYORDER=
